# xmcd
#
# Track frame offsets:
#	150
#	8784
#	18278
#	24490
#	31278
#	36616
#	42730
#	52588
#	59309
#	65931
#	75705
#	83998
#	91742
#	99447
#	107070
#	111840
#	116912
#	122272
#	128807
#	138318
#	142647
#	152105
#	163883
#	173138
#	182710
#	191330
#
# Disc length: 2662 seconds
#
# Revision: 1
# Processed by: cddbd v1.5.2PL0 Copyright (c) Steve Scherf et al.
# Submitted via: audiograbber 1.83.01
#
DISCID=580a641a
DTITLE=CÁSSIO BRUNO - JOVEM GUARDA
DYEAR=1900
DGENRE=
TTITLE0=CORAÇÃO DE PAPEL
TTITLE1=A VOLTA
TTITLE2=ESQUEÇA
TTITLE3=WHISKY A GO GO
TTITLE4=MENINA LINDA
TTITLE5=FECHE OS OLHOS
TTITLE6=NÃO ME DIGA ADEUS
TTITLE7=ANA
TTITLE8=COMO NUM SONHO
TTITLE9=A PRIMEIRA LÁGRIMA
TTITLE10=MEU BEM NÃO ME QUER
TTITLE11=OBRIGADO PELA ATENÇÃO
TTITLE12=PENSANDO NELA
TTITLE13=ALGUÉM NA MULTIDÃO
TTITLE14=AI DE MIM
TTITLE15=EU NÃO SABIA QUE VOCÊ EXISTIA
TTITLE16=DEVOLVA-ME
TTITLE17=O BOM
TTITLE18=DIANA
TTITLE19=OH CAROL
TTITLE20=VEM ME AJUDAR
TTITLE21=MAR DE ROSAS
TTITLE22=SE VOCÊ ME QUIZER
TTITLE23=HEY GIRL
TTITLE24=AGORA EU SEI
TTITLE25=ALGUÉM NO MEU CAMINHO
EXTD=
EXTT0=
EXTT1=
EXTT2=
EXTT3=
EXTT4=
EXTT5=
EXTT6=
EXTT7=
EXTT8=
EXTT9=
EXTT10=
EXTT11=
EXTT12=
EXTT13=
EXTT14=
EXTT15=
EXTT16=
EXTT17=
EXTT18=
EXTT19=
EXTT20=
EXTT21=
EXTT22=
EXTT23=
EXTT24=
EXTT25=
PLAYORDER=
